<?xml version="1.0" standalone="no"?>
<!DOCTYPE svg PUBLIC "-//W3C//DTD SVG 20010904//EN"
 "http://www.w3.org/TR/2001/REC-SVG-20010904/DTD/svg10.dtd">
<svg version="1.0" xmlns="http://www.w3.org/2000/svg"
 width="300.000000pt" height="300.000000pt" viewBox="0 0 300.000000 300.000000"
 preserveAspectRatio="xMidYMid meet">
<metadata>
Created by potrace 1.16, written by Peter Selinger 2001-2019
</metadata>
<g transform="translate(0.000000,300.000000) scale(0.100000,-0.100000)"
fill="#000000" stroke="none">
<path  d="M1457 2593 c-48 -13 -47 10 -47 8 327 8 714 l0 703 -25 24 c-31 32 -91 34 -129 4z"/>
<!-- <path d="M1457 2593 c-48 -13 -47 10 -47 -1106 0 -1036 0 -1043 20 -1065 28
-30 111 -31 140 -2 20 20 20 32 20 1074 0 994 -1 1055 -18 1076 -16 20 -19 21
-31 6 -7 -9 -19 -16 -25 -16 -6 0 -3 5 7 11 36 21 -10 -8 -47 -13z"/> -->
<path d="M736 2299 l-26 -20 0 -709 0 -709 22 -21 c35 -32 125 -24 150 14 4 6
8 327 8 714 l0 703 -25 24 c-31 32 -91 34 -129 4z"/>
<path d="M1672 2062 c-18 -18 -19 -54 -26 -595 -6 -502 -5 -580 8 -606 9 -16
23 -31 31 -35 33 -12 93 -6 116 13 l24 19 0 419 c0 230 -2 498 -3 595 -4 174
-4 177 -27 192 -34 22 -100 21 -123 -2z"/>
<path d="M1933 1983 c-52 -10 -53 -21 -53 -393 0 -335 1 -347 20 -368 28 -30
107 -31 138 -2 22 21 22 24 22 368 0 301 -2 351 -16 370 -9 13 -23 21 -32 18
-10 -2 -27 -7 -39 -11 -18 -5 -22 -3 -17 9 3 9 5 15 3 15 -2 -1 -14 -4 -26 -6z"/>
<path d="M964 1946 c-18 -14 -19 -31 -22 -370 l-3 -356 25 -25 c37 -37 121
-31 148 9 4 6 8 171 8 367 0 332 -1 357 -18 372 -23 21 -110 23 -138 3z"/>
<path d="M494 1876 c-18 -14 -19 -30 -19 -376 l0 -362 24 -19 c28 -23 81 -25
121 -4 l29 15 3 348 c3 337 0 388 -25 404 -21 13 -112 9 -133 -6z"/>
<path d="M1202 1734 c-21 -15 -22 -21 -22 -188 0 -155 2 -175 18 -189 28 -25
112 -23 140 3 21 20 22 29 22 176 0 150 -6 188 -34 206 -20 14 -101 8 -124 -21z"/>
<path d="M2150 1689 c-26 -20 -26 -21 -26 -163 0 -133 2 -144 21 -162 15 -13
36 -19 69 -19 33 0 54 6 69 19 19 18 21 29 21 162 0 142 0 143 -26 163 -16 13
-41 21 -64 21 -23 0 -48 -8 -64 -21z"/>
<path d="M266 1689 c-26 -20 -26 -21 -26 -163 0 -133 2 -144 21 -162 15 -13
36 -19 69 -19 33 0 54 6 69 19 19 18 21 29 21 162 0 142 0 143 -26 163 -16 13
-41 21 -64 21 -23 0 -48 -8 -64 -21z"/>

</svg>
