<?xml version="1.0" encoding="utf-8"?>
<!-- Svg Vector Icons : http://www.onlinewebfonts.com/icon -->
<!DOCTYPE svg PUBLIC "-//W3C//DTD SVG 1.1//EN" "http://www.w3.org/Graphics/SVG/1.1/DTD/svg11.dtd">
<svg version="1.1" xmlns="http://www.w3.org/2000/svg" xmlns:xlink="http://www.w3.org/1999/xlink" x="0px" y="0px" viewBox="0 0 1000 1000" enable-background="new 0 0 1000 1000" xml:space="preserve">
<metadata> Svg Vector Icons : http://www.onlinewebfonts.com/icon </metadata>
<g><path d="M890.2,859.8l53.6-50.7c17.9-16.9,18.7-45.1,1.8-63.1c-16.9-17.9-45.1-18.7-63-1.8l-53.6,50.7l-49.4-52.3c-16.9-17.9-45.1-18.7-63-1.8c-17.9,16.9-18.7,45.1-1.8,63l49.4,52.3l-53.6,50.7c-17.9,16.9-18.7,45.1-1.8,63c16.9,17.9,45.1,18.7,63,1.8l53.6-50.7l52,55c16.9,17.9,45.1,18.7,63,1.8c17.9-16.9,18.7-45.1,1.8-63L890.2,859.8z" fill="rgb(237, 33, 94)" /><path d="M258.8,194.4h5.4c25.4,0,45.9-20.6,45.9-45.9V55.9c0-25.4-20.6-45.9-45.9-45.9h-5.4c-25.4,0-45.9,20.6-45.9,45.9v92.5C212.9,173.8,233.5,194.4,258.8,194.4z" fill="rgb(237, 33, 94)"/><path d="M493.9,194.4h5.4c25.4,0,45.9-20.6,45.9-45.9V55.9c0-25.4-20.6-45.9-45.9-45.9h-5.4c-25.4,0-45.9,20.6-45.9,45.9v92.5C447.9,173.8,468.5,194.4,493.9,194.4z" fill="rgb(237, 33, 94)"/><path d="M720.8,194.4h5.4c25.4,0,45.9-20.6,45.9-45.9V55.9c0-25.4-20.6-45.9-45.9-45.9h-5.4c-25.4,0-45.9,20.6-45.9,45.9v92.5C674.9,173.8,695.4,194.4,720.8,194.4z" fill="rgb(237, 33, 94)"/><path d="M709.3,870.8l-27.4-27.4c-34.8-34.8-34.8-91.3,0-126.1c34.8-34.8,91.3-34.8,126.1,0l27.4,27.4l27.4-27.4c19.7-19.7,46.2-28.2,71.9-25.7V141c0-25.4-20.6-45.9-45.9-45.9h-83.2v54.8c0,48.1-39,87.1-87.1,87.1c-48.1,0-87.1-39-87.1-87.1V95.1h-52.7v54.8c0,48.1-39,87.1-87.1,87.1c-48.1,0-87.1-39-87.1-87.1V95.1h-54.7v54.8c0,48.1-39,87.1-87.1,87.1c-48.1,0-87.1-39-87.1-87.1V95.1H88.2c-25.4,0-45.9,20.6-45.9,45.9v792.4c0,25.4,20.6,45.9,45.9,45.9h569.4c-5.9-28.4,2.2-59.1,24.2-81.1L709.3,870.8z M168.9,355.8c0-25.4,20.6-45.9,45.9-45.9h549.3c25.4,0,45.9,20.6,45.9,45.9v5.4c0,25.4-20.6,45.9-45.9,45.9H214.9c-25.4,0-45.9-20.6-45.9-45.9V355.8z M554.9,747.2c0,18.9-15.4,34.3-34.3,34.3H203.2c-18.9,0-34.3-15.4-34.3-34.3v-4c0-18.9,15.4-34.3,34.3-34.3h317.4c18.9,0,34.3,15.4,34.3,34.3L554.9,747.2L554.9,747.2z M648.1,563.7c0,25.4-20.6,45.9-45.9,45.9H214.9c-25.4,0-45.9-20.6-45.9-45.9v-5.4c0-25.4,20.6-45.9,45.9-45.9h387.2c25.4,0,45.9,20.6,45.9,45.9V563.7z" fill="rgb(237, 33, 94)"/></g>
</svg>